<svg xmlns="http://www.w3.org/2000/svg" viewBox="0 0 400 400">
<g>
	<path d="M122.8,394c0.3-8.2,0.3-30.1,0-32.3c0,0,0,0,0-0.1v-0.1c-0.1-0.1-0.1-0.1-0.2-0.2c-0.1,0-0.3,0.1-0.5,0.3
		c-0.5,0.6-1,1.7-1.4,3.1c-0.8,3.2-1.5,8.4-1.9,14.2c0,0.4-0.1,0.8-0.1,1.3c-0.2,4.1-0.5,6.7-1,9.3c-0.2,1-0.4,2.1-0.7,3.2
		c-0.5,2.4-1.1,4.7-1.3,5.8l-0.2,1.5h3.3h3.3L122.8,394C122.8,394.1,122.8,394,122.8,394z"/>
	<path d="M137.1,178.7c1.8-3.2,2.7-6.7,2.7-10.2c-0.1-3-0.7-5.5-1.6-7.7c-0.7-1.5-1.6-2.8-2.8-4c-0.9-0.9-2-1.7-3.3-2.4
		c-0.1,0-0.1-0.1-0.2-0.1c-0.4-0.2-0.8-0.4-1.2-0.6c-0.1,0-0.1,0-0.2-0.1c-1.4-0.6-3.1-1.1-4.9-1.5c-7.7-1.6-14.3,0.5-18.6,4.8
		c-3.8,4.3-5.6,10.6-4.2,16.9c2.6,11.8,18.8,18.6,28.1,11.8C133.3,184,135.5,181.5,137.1,178.7z M127.9,173.2
		c-0.7,1.1-1.6,1.8-2.7,2.3c0,0,0,0-0.1,0c-2.3,1.2-4.9,0.9-7-0.3c-1.5-0.8-2.6-2-3.1-3.6v-0.1c-0.1-0.2-0.1-0.4-0.2-0.7
		s-0.1-0.6-0.1-0.9c0-2,0.9-3.8,2.2-5c0.8-0.8,1.8-1.4,2.9-1.8c2.1-0.7,4-0.4,5.5,0.5c0.1,0,0.1,0.1,0.2,0.1
		C128.6,165.3,129.8,170.4,127.9,173.2z"/>
	<path d="M308,398.4c-0.3-1-0.9-2.8-1.5-4.6c-0.2-0.7-0.6-1.6-0.9-2.6c-0.8-2.3-1.9-5.5-2.8-8.1c-1-2.9-3-7.8-4.6-11.4
		c-0.2-0.5-0.5-1-0.7-1.5c-1.6-3.5-3.8-8.2-5-10.8c-1.7-3.7-2.8-5.8-3.6-6.8c-0.4-0.5-0.8-0.7-1.1-0.7c-0.1,0-0.1,0.1-0.2,0.2
		c-0.2,0.2-0.3,0.4-0.5,0.7c-0.1,0.3-0.2,0.6-0.2,1c-0.2,0.9-0.2,1.9,0,3.3c0.6,3.8,2.6,10.4,6.8,22.7c3.4,10.1,6.2,18.8,6.2,19.3
		c0,0.9,0.1,0.9,4.2,0.9h4.2l-0.1-0.6L308,398.4z"/>
	<path d="M277.5,197.2c-3.1-1.9-5.7-0.5-8.1,4.2c-2.3,4.5-6.8,6.2-12.5,4.6c-6.5-1.8-9.9-12.4-5.5-17.2
		c5.4-5.8,3.9-9.9-4.4-12.6c-2.4-0.8-4.5-0.9-6.1-0.5c-0.1,0.1-0.3,0.1-0.4,0.2c-1.8,0.8-2.9,2.1-3.2,3.9c0,0.2-0.1,0.3-0.1,0.5l0,0
		c-0.1,1.5,0.3,3.2,1.1,5.2l0,0c0.2,0.5,0.5,1,0.7,1.5l1.8,3.5l-0.2,3.8c-0.7,12.1-9.6,18.9-16.6,12.7c-3.5-3.1-5.1-3.6-7.6-2.5
		c-5,2.4-2.7,9.4,4.1,12.4c8.3,3.7,14.6,2.5,21.3-4.1c3.8-3.7,4.5-3.8,8.2-1c5.5,4.3,17.4,5.3,23.3,2.1
		C280.4,210.3,282.8,200.4,277.5,197.2z"/>
	<path d="M336.2,369c-1-2.2-3-6.9-4.5-10.4c-1.4-3.5-4.5-10.4-6.9-15.2c-2.4-4.8-5-10.3-5.9-12.2
		c-3.3-7.1-11.9-23.1-14.6-27.1c-4.6-6.9-4.8-7.9-1.4-9.4c1.1-0.5,3.7-1.6,5.6-2.4c2-0.8,4.7-2.3,6-3.2c5.7-3.8,13-8.8,15-10.4
		c3.6-2.7,18.9-19.5,21.9-24c3.3-5,9.6-14,12.1-17.3c1.1-1.4,2.6-3.9,3.3-5.6c0.8-1.7,2.9-6.1,4.8-9.9c3.7-7.5,6.5-15,9-24
		c0.9-3.2,2.2-7.4,2.8-9.3c2.7-7.5,2.6-22-0.2-30.1c-0.8-2.3-2-6.6-2.8-9.6s-2-7.4-2.8-9.8s-2.1-7.2-3-10.7
		c-2.5-9.4-3.7-12-8.3-17.9c-7.9-10.2-7.2-7.8-7-25.4c0.2-15.8-0.2-22.6-1.5-28.4c-0.4-1.8-1-4.7-1.4-6.6c-0.1-0.4-0.2-0.9-0.3-1.3
		v-0.1c-1.4-6.4-3.7-11.4-6.4-14.4l-0.1-0.1c-0.1-0.1-0.2-0.3-0.4-0.4c-0.1-0.1-0.2-0.2-0.3-0.3c-0.1,0-0.1-0.1-0.2-0.1
		c-2.1-1.9-4.5-2.7-6.9-2c-0.6,0.2-1.3,0.5-1.9,0.9c-1.6,1.1-7.8,7.1-13.4,13c-7.1,7.5-14.8,16.3-18.2,21c-4.1,5.7-4.3,5.7-15.1,1.9
		c-4.2-1.5-9-3-10.6-3.4c-4.5-1.1-21.3-4.4-25.6-5c-2.1-0.3-5-0.8-6.4-1.1c-4.9-1.2-34.6-1.4-40.8-0.3c-2.8,0.5-7.2,1-10,1.2
		s-6.7,0.7-8.8,1c-2.3,0.4-8.2,0.8-14.8,1c-7.4,0.2-12,0.6-14.2,1c-8.9,1.8-16.4,3.6-20.4,4.8c-6,1.8-18.5,5.3-20.2,5.6
		c-2.2,0.4-3.7-0.5-9.5-5.9C103.6,59.4,100,56.5,95,53.6c-2.5-1.5-5.6-3.5-6.7-4.3c-3.7-2.8-7.9-5.2-11.9-6.9c-6.7-2.7-9.5-4-13-6
		c-9.1-5.2-12.8-2.3-19,15.2c-4.2,12-4.1,11.2-4.1,30.2c0,15.5,0.1,16.6,0.9,20.7c1.8,8.4,1.3,11.6-2.6,17.3
		c-1.5,2.2-3.4,5.4-4.2,7.1c-0.8,1.7-2.8,5.2-4.2,7.7c-5.1,9-7.1,14.2-8,21.6c-0.4,3-1.7,9.3-3.2,15.3c-3,13.5-3.1,14.6-2.9,24.5
		c0.2,10.7,2.7,21.5,7.2,31.2c0.8,1.6,2,4.7,2.7,6.8s2.2,5.4,3.3,7.4c1,2,3.3,6.2,4.9,9.4c6.2,11.8,11,17.5,20.2,23.7
		c7.6,5.1,9.9,6.2,15.9,7.9c13.4,3.7,20.4,5.8,22.5,6.8c1.3,0.7,3.7,1.7,5.5,2.4c6.3,2.5,6.4,4,1.3,15.3c-1.1,2.4-3.5,8.3-5.4,13
		s-4.1,10.3-5,12.5c-0.9,2.1-2.4,6.7-3.4,10.1s-2.2,7.2-2.6,8.3c-1.4,3.7-2.3,7.5-4.2,17.5c-1.3,6.7-2.1,10.6-3.1,14.4
		c-0.5,1.9-1.1,3.7-1.8,5.8c-0.1,0.2-0.2,0.5-0.2,0.7c0,0,0,0,0,0.1l0,0c-0.6,1.9-1.4,4.5-1.8,6c-0.4,1.8-0.9,3.5-1,3.9
		c-0.2,0.7,0.5,0.7,10,0.7h10.2V394c0-7.1,0.6-13.6,1.6-17.9c2.6-11.4,4.1-17.3,5.4-21c3-9.1,5.7-16,8.2-21.2c1.4-3,3.5-7.9,4.5-11
		c6-17.2,8.6-22.8,12.5-26.7l1.6-1.6l2.8,0.2c2,0.2,4.4,0.8,8.2,2.2c6.2,2.3,9.3,3.2,25.8,7.6c6.6,1.8,13.4,3.4,15.2,3.7
		c1.8,0.2,4.5,0.7,6,1s5,0.9,7.6,1.2c2.7,0.3,7.7,1.3,11.2,2.2c5.8,1.5,7,1.7,14.2,2c4.7,0.2,8.7,0.6,10.2,1c1.4,0.4,5.5,0.8,9.6,1
		c4.7,0.2,8,0.6,9.6,1.1c2.2,0.6,4.7,0.7,24.9,0.7c24.9,0,23.2-0.2,24.4,2.9c2.2,6,3.7,9.5,5.8,13.1c2.4,4.2,3.9,7.5,6.2,13.4
		c0,0.1,0.1,0.3,0.2,0.4c1.1,2.6,5.1,11.1,9.4,19.6c3,6,5.1,10.3,6.6,13.8c1.4,2.9,2.3,5.1,2.6,5.8c0.3,0.8,0.6,1.9,0.9,3.1
		c0.5,1.5,0.8,2.9,1.2,4.5c0.4,1.6,0.7,3,0.8,3.8l0.2,1h9h9l-0.3-2.7C345.7,392.3,341.3,379.8,336.2,369z M279.2,274.8
		c-2.8,0.7-6.4,1.7-8.2,2.2c-7.2,2.3-21.5,5.3-26.2,5.5c-2.5,0.1-5.7,0.4-7,0.7c-5.6,1-78.4,0.9-83.4,0c-2.5-0.5-7.3-1-10.8-1.2
		c-3.4-0.2-7.5-0.6-9.1-1c-1.6-0.3-4.9-0.8-7.4-1c-6-0.6-6.4-0.6-13.3-2.4c-8.7-2.2-24.7-8-35.1-12.6c-18.4-8.1-37.2-29.7-43.2-49.5
		c-1.9-6.2-2.8-20.6-1.7-26.9c0.3-2,0.7-5,0.9-6.8c0.2-2.9,1.9-14.4,3-21c1.8-10.4,12.8-32.8,17.9-36.7c4.1-3.1,5.1-9.5,2.8-17.9
		c-1-3.5-1-3.9-0.9-18.2V73.4l1.2-6.4c2.5-13,3.2-13.4,12.6-6.6c1.8,1.3,5.5,3.6,8.2,5c5.2,2.8,14.5,8.3,18.6,11.1
		c2.8,1.9,5.6,4.2,9.9,8.2c5.1,4.7,8.3,5.5,14.1,3.4c11.4-4.1,19.9-6.4,29.6-8c2.2-0.3,5.5-1,7.4-1.4c7.8-1.8,18.2-3.2,27-3.6
		c4.8-0.2,10.4-0.7,12.4-1c8.1-1.3,26.6-1.9,30.4-1c0.9,0.2,3.9,0.6,6.8,0.8c11,0.9,22,3.9,50.7,14.2c4.5,1.6,7.9,2.5,12,3.2
		c3.1,0.5,8.4,1.8,11.7,2.8c8.6,2.6,11.1,2.8,11.6,0.9c0.5-2.1-1.4-4.4-5.8-7c-3.1-1.9-3.9-3-3.1-4.9c1.1-2.6,8.2-13,11-16.1
		c0.4-0.5,0.9-1,1.3-1.4c0.2-0.2,0.3-0.3,0.4-0.5c0.2-0.2,0.4-0.5,0.6-0.7c5.8-6.4,8.2-8.7,9.6-9.7l0,0c2.4-1.7,3.5-1.3,5,0.2
		c0.2,0.2,0.4,0.5,0.6,0.7c2.6,3.1,4.3,10.2,5.1,20.8c0,0.1,0,0.1,0,0.2c0,0.7,0.1,1.4,0.1,2.2c0.2,4.5,0.6,9.7,0.8,11.6
		c0.2,1.9,0.6,6.2,0.8,9.6c0.5,7.6,1,9.4,4.4,13.6c4.8,5.9,11.8,24.1,14.6,37.9c0.5,2.7,1.7,7,2.5,9.6l1.5,4.7v8v8l-1.5,3.4
		c-0.9,2.1-2.1,5.7-2.9,9.4c-2.3,10-10.5,23.5-21.5,35.4c-2.1,2.3-4.9,5.5-6.2,7.2c-2.8,3.6-4.6,5.4-9.4,9c-2,1.5-5.6,4.8-8,7.3
		C313.1,262.5,297.4,270.4,279.2,274.8z"/>
	<path d="M348.6,179.1c8.3-9.6,5.7-25.5-4.9-29.5c-3.4-1.3-14.4-1.6-16.7-0.5c-8.2,3.9-9.6,22.5-2.3,30.5
		C329.8,185.3,343.5,185,348.6,179.1z M332.8,158.3c0.3-0.1,0.6-0.3,0.9-0.4c0.1,0,0.2-0.1,0.3-0.1c0.1,0,0.2-0.1,0.3-0.1
		c0.2,0,0.4-0.1,0.6-0.1h0.1c0.2,0,0.5,0,0.7,0h0.1c0.2,0,0.5,0,0.7,0c0,0,0,0,0.1,0c0.7,0.1,1.5,0.2,2.3,0.4
		c1.5,0.4,2.6,1.2,3.4,2.1l0,0c0,0,0,0,0.1,0.1c0.5,0.5,0.9,1.1,1.1,1.7c0.5,1.3,0.5,2.8,0,4.3c-0.5,1.8-1.7,3.5-3.6,4.8
		c-0.7,0.4-1.4,0.7-2.1,0.8h-0.1c-0.2,0-0.4,0.1-0.6,0.1H337h-0.1c-0.5,0-1-0.1-1.5-0.2c-0.1,0-0.2-0.1-0.3-0.1
		c-0.1,0-0.3-0.1-0.4-0.1s-0.1-0.1-0.2-0.1c-2.2-1-4-3.3-4.5-6.2C329.6,162.5,330.3,159.6,332.8,158.3z"/>
</g>
</svg>
